<?xml version="1.0" encoding="utf-8"?>
<!-- Generator: Adobe Illustrator 21.1.0, SVG Export Plug-In . SVG Version: 6.00 Build 0)  -->
<svg version="1.1" id="Layer_1" xmlns="http://www.w3.org/2000/svg" xmlns:xlink="http://www.w3.org/1999/xlink" x="0px" y="0px"
	 viewBox="0 0 78 78" style="enable-background:new 0 0 78 78;" xml:space="preserve">
<style type="text/css">
	.st0{fill:#009688;}
	.st1{fill:#FFFFFF;}
</style>
<circle class="st0" cx="39" cy="39" r="37.5"/>
<path class="st1" d="M31.5,26.5h10L49,34v15c0,0.7-0.3,1.3-0.8,1.8s-1.1,0.7-1.8,0.7h-15c-0.7,0-1.3-0.2-1.8-0.7S29,49.7,29,49V29
	c0-0.7,0.3-1.3,0.8-1.8S30.8,26.5,31.5,26.5z M46.5,41.5V39h-15v2.5H46.5z M42.7,46.5V44H31.5v2.5H42.7z M40.2,35.2h6.9l-6.9-6.9
	V35.2z"/>
</svg>
